<?xml version="1.0" standalone="no"?>
<!DOCTYPE svg PUBLIC "-//W3C//DTD SVG 20010904//EN"
 "http://www.w3.org/TR/2001/REC-SVG-20010904/DTD/svg10.dtd">
<svg version="1.0" xmlns="http://www.w3.org/2000/svg"
 width="512.000000pt" height="512.000000pt" viewBox="0 0 512.000000 512.000000"
 preserveAspectRatio="xMidYMid meet">
<metadata>
Created by potrace 1.11, written by Peter Selinger 2001-2013
</metadata>
<g transform="translate(0.000000,512.000000) scale(0.100000,-0.100000)"
fill="#000000" stroke="none">
<path d="M420 4748 c0 -15 245 -262 273 -276 34 -16 128 -58 167 -75 19 -9
141 -63 271 -122 275 -123 246 -89 256 -308 3 -76 10 -140 14 -142 4 -3 21 6
38 21 l31 25 -6 172 c-3 95 -7 182 -10 195 -4 19 -77 58 -422 228 -229 114
-456 226 -504 250 -91 46 -108 51 -108 32z"/>
<path d="M4328 4642 c-130 -64 -356 -175 -502 -247 -146 -71 -268 -136 -272
-145 -4 -8 -9 -98 -11 -200 l-5 -185 26 -24 c16 -15 30 -21 35 -15 12 12 31
172 31 265 l0 75 48 21 c280 125 348 156 357 164 5 5 14 9 21 9 7 0 45 15 86
34 40 19 100 46 133 61 49 22 84 51 187 157 111 114 138 149 110 148 -4 -1
-113 -54 -244 -118z"/>
<path d="M460 4626 c0 -8 95 -207 210 -441 116 -235 210 -430 210 -434 0 -4 9
-16 19 -25 16 -15 50 -19 197 -27 158 -7 180 -6 206 9 25 15 46 47 36 57 -2 2
-44 6 -93 9 -50 3 -127 8 -171 12 l-81 6 -23 52 c-13 28 -35 78 -50 111 -15
33 -64 144 -110 248 l-84 187 -118 117 c-127 126 -148 143 -148 119z"/>
<path d="M4404 4512 c-117 -117 -132 -136 -163 -208 -19 -43 -52 -117 -74
-164 -21 -47 -45 -101 -54 -120 -26 -60 -64 -143 -85 -187 l-20 -41 -84 -6
c-46 -3 -122 -9 -169 -12 -47 -3 -87 -10 -91 -15 -3 -5 8 -22 24 -39 l29 -29
144 6 c79 3 167 8 194 12 l50 6 105 212 c223 450 300 609 300 621 0 6 4 12 8
12 12 0 33 63 24 72 -5 5 -67 -49 -138 -120z"/>
<path d="M1453 3810 c-3 -11 -11 -20 -19 -20 -7 0 -23 -13 -36 -30 -12 -16
-27 -30 -32 -30 -6 0 -17 -10 -25 -21 -12 -21 -3 -32 150 -185 l164 -164 -95
-89 c-215 -200 -359 -452 -409 -716 -7 -33 -16 -79 -21 -103 -13 -57 -13 -337
1 -404 6 -29 15 -78 21 -108 16 -79 54 -194 94 -279 l35 -75 -446 -446 c-245
-245 -445 -450 -445 -456 0 -22 116 -136 134 -133 9 2 207 194 440 427 233
232 426 422 429 422 3 0 58 -53 124 -119 222 -223 445 -340 745 -392 103 -18
148 -20 283 -16 185 6 297 26 450 79 53 19 200 91 203 99 2 5 8 9 14 9 28 0
176 118 282 224 l118 119 427 -427 c234 -234 433 -426 441 -426 20 0 130 111
130 131 0 8 -198 214 -440 456 -242 243 -440 445 -440 450 0 5 13 36 29 69 42
88 78 196 103 314 19 87 22 135 22 285 0 159 -3 194 -27 300 -37 165 -72 257
-149 394 -22 38 -78 123 -87 131 -4 3 -18 21 -33 41 -32 43 -150 163 -196 199
-18 14 -32 31 -32 39 0 8 70 84 155 169 85 85 155 159 155 164 0 15 -27 38
-44 38 -9 0 -16 7 -16 16 0 17 -23 44 -39 44 -5 0 -13 9 -16 20 -3 11 -12 20
-18 20 -7 0 -91 -80 -189 -177 l-177 -176 -78 35 c-102 47 -181 72 -343 109
-74 17 -430 17 -496 0 -27 -7 -67 -17 -89 -22 -116 -30 -186 -55 -266 -95 -26
-13 -52 -24 -58 -24 -7 0 -91 79 -188 175 -97 96 -181 175 -186 175 -5 0 -11
-9 -14 -20z m1229 -410 c406 -70 735 -328 887 -695 65 -156 73 -188 91 -355
15 -141 -11 -365 -51 -442 -5 -10 -9 -25 -9 -33 0 -8 -4 -23 -9 -33 -5 -9 -24
-48 -42 -87 -141 -295 -383 -505 -704 -611 -115 -38 -193 -49 -340 -49 -154 0
-244 13 -330 45 -11 4 -38 13 -60 20 -99 31 -256 121 -365 209 -76 61 -210
215 -210 241 0 6 -3 10 -7 10 -5 0 -13 10 -19 23 -7 12 -23 45 -37 72 -123
245 -163 477 -121 717 16 96 51 214 84 283 10 22 24 55 32 73 7 17 16 32 20
32 5 0 8 5 8 11 0 12 71 118 109 164 30 35 129 133 158 156 146 116 337 206
508 239 55 10 109 21 120 23 50 11 183 5 287 -13z"/>
<path d="M2515 3228 c-3 -7 -6 -326 -8 -708 -3 -717 -5 -749 -44 -781 -12 -11
-79 -15 -287 -19 l-271 -5 0 -170 0 -170 325 0 325 0 59 28 c150 72 218 171
245 360 16 114 15 1449 -1 1465 -17 17 -337 17 -343 0z"/>
</g>
</svg>
